<svg width="78" height="22" viewBox="0 0 78 22" fill="none" xmlns="http://www.w3.org/2000/svg">
<rect width="78" height="22" fill="#F5F5F5"/>
<g clip-path="url(#clip0_0_1)">
<path d="M53.2969 8.75V7H60.25V8.75H57.8438V15H55.7031V8.75H53.2969ZM63.0986 15L60.7393 7H63.1611L64.2549 11.9219H64.3174L65.6143 7H67.5205L68.8174 11.9375H68.8799L69.9736 7H72.3955L70.0361 15H67.958L66.5986 10.5312H66.5361L65.1768 15H63.0986Z" fill="#D6C372" fill-opacity="0.45"/>
<path d="M4.78906 15V7H7.78906C8.40365 7 8.91927 7.10677 9.33594 7.32031C9.75521 7.53385 10.0716 7.83333 10.2852 8.21875C10.5013 8.60156 10.6094 9.04818 10.6094 9.55859C10.6094 10.0716 10.5 10.5169 10.2813 10.8945C10.0651 11.2695 9.74609 11.5599 9.32422 11.7656C8.90234 11.9687 8.38411 12.0703 7.76953 12.0703H5.63281V10.8672H7.57422C7.93359 10.8672 8.22786 10.8177 8.45703 10.7187C8.6862 10.6172 8.85547 10.4701 8.96484 10.2773C9.07682 10.082 9.13281 9.84245 9.13281 9.55859C9.13281 9.27474 9.07682 9.03255 8.96484 8.83203C8.85286 8.62891 8.68229 8.47526 8.45313 8.37109C8.22396 8.26432 7.92839 8.21094 7.56641 8.21094H6.23828V15H4.78906ZM8.92188 11.375L10.9023 15H9.28516L7.33984 11.375H8.92188ZM14.4512 15.1172C13.8496 15.1172 13.3301 14.9922 12.8926 14.7422C12.4577 14.4896 12.123 14.1328 11.8887 13.6719C11.6543 13.2083 11.5371 12.6628 11.5371 12.0352C11.5371 11.418 11.6543 10.8763 11.8887 10.4102C12.1257 9.94141 12.4564 9.57682 12.8809 9.31641C13.3053 9.05339 13.804 8.92188 14.377 8.92188C14.7467 8.92188 15.0957 8.98177 15.4238 9.10156C15.7546 9.21875 16.0462 9.40104 16.2988 9.64844C16.554 9.89583 16.7546 10.2109 16.9004 10.5937C17.0462 10.974 17.1191 11.4271 17.1191 11.9531V12.3867H12.2012V11.4336H15.7637C15.7611 11.1628 15.7025 10.9219 15.5879 10.7109C15.4733 10.4974 15.3132 10.3294 15.1074 10.207C14.9043 10.0846 14.6673 10.0234 14.3965 10.0234C14.1074 10.0234 13.8535 10.0937 13.6348 10.2344C13.416 10.3724 13.2454 10.5547 13.123 10.7812C13.0033 11.0052 12.9421 11.2513 12.9395 11.5195V12.3516C12.9395 12.7005 13.0033 13 13.1309 13.25C13.2585 13.4974 13.4368 13.6875 13.666 13.8203C13.8952 13.9505 14.1634 14.0156 14.4707 14.0156C14.6764 14.0156 14.8626 13.987 15.0293 13.9297C15.196 13.8698 15.3405 13.7826 15.4629 13.668C15.5853 13.5534 15.6777 13.4115 15.7402 13.2422L17.0605 13.3906C16.9772 13.7396 16.8184 14.0443 16.584 14.3047C16.3522 14.5625 16.0553 14.763 15.6934 14.9062C15.3314 15.0469 14.9173 15.1172 14.4512 15.1172ZM20.542 15.1055C20.0706 15.1055 19.6488 14.9844 19.2764 14.7422C18.904 14.5 18.6097 14.1484 18.3936 13.6875C18.1774 13.2266 18.0693 12.6667 18.0693 12.0078C18.0693 11.3411 18.1787 10.7786 18.3975 10.3203C18.6188 9.85937 18.917 9.51172 19.292 9.27734C19.667 9.04036 20.085 8.92188 20.5459 8.92188C20.8975 8.92188 21.1865 8.98177 21.4131 9.10156C21.6396 9.21875 21.8193 9.36068 21.9521 9.52734C22.085 9.69141 22.1878 9.84635 22.2607 9.99219H22.3193V7H23.7373V15H22.3467V14.0547H22.2607C22.1878 14.2005 22.0824 14.3555 21.9443 14.5195C21.8063 14.681 21.624 14.819 21.3975 14.9336C21.1709 15.0482 20.8857 15.1055 20.542 15.1055ZM20.9365 13.9453C21.236 13.9453 21.4912 13.8646 21.7021 13.7031C21.9131 13.5391 22.0732 13.3112 22.1826 13.0195C22.292 12.7279 22.3467 12.388 22.3467 12C22.3467 11.612 22.292 11.2747 22.1826 10.9883C22.0758 10.7018 21.917 10.4792 21.7061 10.3203C21.4977 10.1615 21.2412 10.082 20.9365 10.082C20.6214 10.082 20.3584 10.1641 20.1475 10.3281C19.9365 10.4922 19.7777 10.7187 19.6709 11.0078C19.5641 11.2969 19.5107 11.6276 19.5107 12C19.5107 12.375 19.5641 12.7096 19.6709 13.0039C19.7803 13.2956 19.9404 13.526 20.1514 13.6953C20.3649 13.862 20.6266 13.9453 20.9365 13.9453ZM25.2441 15V9H26.5957V10.0195H26.666C26.791 9.67578 26.998 9.40755 27.2871 9.21484C27.5762 9.01953 27.9212 8.92188 28.3223 8.92188C28.7285 8.92188 29.071 9.02083 29.3496 9.21875C29.6309 9.41406 29.8288 9.68099 29.9434 10.0195H30.0059C30.1387 9.6862 30.3626 9.42057 30.6777 9.22266C30.9954 9.02214 31.3717 8.92188 31.8066 8.92188C32.3587 8.92188 32.8092 9.09635 33.1582 9.44531C33.5072 9.79427 33.6816 10.3034 33.6816 10.9727V15H32.2637V11.1914C32.2637 10.819 32.1647 10.5469 31.9668 10.375C31.7689 10.2005 31.5267 10.1133 31.2402 10.1133C30.8991 10.1133 30.6322 10.2201 30.4395 10.4336C30.2493 10.6445 30.1543 10.9193 30.1543 11.2578V15H28.7676V11.1328C28.7676 10.8229 28.6738 10.5755 28.4863 10.3906C28.3014 10.2057 28.0592 10.1133 27.7598 10.1133C27.5566 10.1133 27.3717 10.1654 27.2051 10.2695C27.0384 10.3711 26.9056 10.5156 26.8066 10.7031C26.7077 10.888 26.6582 11.1042 26.6582 11.3516V15H25.2441ZM35.1162 15V9H36.5303V15H35.1162ZM35.8271 8.14844C35.6032 8.14844 35.4105 8.07422 35.249 7.92578C35.0876 7.77474 35.0068 7.59375 35.0068 7.38281C35.0068 7.16927 35.0876 6.98828 35.249 6.83984C35.4105 6.6888 35.6032 6.61328 35.8271 6.61328C36.0537 6.61328 36.2464 6.6888 36.4053 6.83984C36.5667 6.98828 36.6475 7.16927 36.6475 7.38281C36.6475 7.59375 36.5667 7.77474 36.4053 7.92578C36.2464 8.07422 36.0537 8.14844 35.8271 8.14844ZM39.3984 11.4844V15H37.9844V9H39.3359V10.0195H39.4062C39.5443 9.68359 39.7643 9.41667 40.0664 9.21875C40.3711 9.02083 40.7474 8.92188 41.1953 8.92188C41.6094 8.92188 41.9701 9.01042 42.2773 9.1875C42.5872 9.36458 42.8268 9.62109 42.9961 9.95703C43.168 10.293 43.2526 10.7005 43.25 11.1797V15H41.8359V11.3984C41.8359 10.9974 41.7318 10.6836 41.5234 10.457C41.3177 10.2305 41.0326 10.1172 40.668 10.1172C40.4206 10.1172 40.2005 10.1719 40.0078 10.2812C39.8177 10.388 39.668 10.543 39.5586 10.7461C39.4518 10.9492 39.3984 11.1953 39.3984 11.4844ZM47.3437 15.1172C46.7422 15.1172 46.2227 14.9922 45.7852 14.7422C45.3503 14.4896 45.0156 14.1328 44.7813 13.6719C44.5469 13.2083 44.4297 12.6628 44.4297 12.0352C44.4297 11.418 44.5469 10.8763 44.7813 10.4102C45.0182 9.94141 45.349 9.57682 45.7734 9.31641C46.1979 9.05339 46.6966 8.92188 47.2695 8.92188C47.6393 8.92188 47.9883 8.98177 48.3164 9.10156C48.6471 9.21875 48.9388 9.40104 49.1914 9.64844C49.4466 9.89583 49.6471 10.2109 49.793 10.5937C49.9388 10.974 50.0117 11.4271 50.0117 11.9531V12.3867H45.0938V11.4336H48.6563C48.6536 11.1628 48.5951 10.9219 48.4805 10.7109C48.3659 10.4974 48.2057 10.3294 48 10.207C47.7969 10.0846 47.5599 10.0234 47.2891 10.0234C47 10.0234 46.7461 10.0937 46.5273 10.2344C46.3086 10.3724 46.138 10.5547 46.0156 10.7812C45.8958 11.0052 45.8346 11.2513 45.832 11.5195V12.3516C45.832 12.7005 45.8958 13 46.0234 13.25C46.151 13.4974 46.3294 13.6875 46.5586 13.8203C46.7878 13.9505 47.056 14.0156 47.3633 14.0156C47.569 14.0156 47.7552 13.987 47.9219 13.9297C48.0885 13.8698 48.2331 13.7826 48.3555 13.668C48.4779 13.5534 48.5703 13.4115 48.6328 13.2422L49.9531 13.3906C49.8698 13.7396 49.7109 14.0443 49.4766 14.3047C49.2448 14.5625 48.9479 14.763 48.5859 14.9062C48.224 15.0469 47.8099 15.1172 47.3437 15.1172Z" fill="white"/>
</g>
<defs>
<clipPath id="clip0_0_1">
<rect width="78" height="22" fill="white"/>
</clipPath>
</defs>
</svg>
